<?xml version="1.0" encoding="iso-8859-1"?>
<!-- Generator: Adobe Illustrator 16.0.3, SVG Export Plug-In . SVG Version: 6.00 Build 0)  -->
<!DOCTYPE svg PUBLIC "-//W3C//DTD SVG 1.1//EN" "http://www.w3.org/Graphics/SVG/1.1/DTD/svg11.dtd">
<svg version="1.1" id="&#x56FE;&#x5C42;_1" xmlns="http://www.w3.org/2000/svg" xmlns:xlink="http://www.w3.org/1999/xlink" x="0px"
	 y="0px" width="20px" height="20px" viewBox="0 0 20 20" style="enable-background:new 0 0 20 20;" xml:space="preserve">
<path style="fill:#19B4FF;" d="M15.319,10.085l3.793-3.732c0.506-0.498,0.506-1.245,0-1.742l-3.793-3.732
	c-0.506-0.498-1.265-0.498-1.771,0L9.757,4.61c-0.506,0.498-0.506,1.244,0,1.742l3.792,3.732
	C14.055,10.583,14.813,10.583,15.319,10.085L15.319,10.085z M7.824,1.583H1.636c-0.612,0-1.128,0.507-1.128,1.109v6.116
	c0,0.602,0.516,1.109,1.128,1.109h6.221c0.613,0,1.128-0.507,1.128-1.109V2.693C8.952,2.091,8.437,1.583,7.824,1.583L7.824,1.583z
	 M7.824,11.161H1.636c-0.612,0-1.128,0.508-1.128,1.109v6.116c0,0.603,0.516,1.108,1.128,1.108h6.221
	c0.613,0,1.128-0.506,1.128-1.108v-6.116C8.952,11.669,8.437,11.161,7.824,11.161z M17.562,11.161h-6.221
	c-0.612,0-1.128,0.508-1.128,1.109v6.116c0,0.603,0.516,1.108,1.128,1.108h6.221c0.612,0,1.128-0.506,1.128-1.108v-6.116
	C18.689,11.669,18.174,11.161,17.562,11.161z"/>
</svg>
