<?xml version="1.0" encoding="iso-8859-1"?>
<!-- Generator: Adobe Illustrator 16.0.3, SVG Export Plug-In . SVG Version: 6.00 Build 0)  -->
<!DOCTYPE svg PUBLIC "-//W3C//DTD SVG 1.1//EN" "http://www.w3.org/Graphics/SVG/1.1/DTD/svg11.dtd">
<svg version="1.1" id="&#x56FE;&#x5C42;_1" xmlns="http://www.w3.org/2000/svg" xmlns:xlink="http://www.w3.org/1999/xlink" x="0px"
	 y="0px" width="20px" height="20px" viewBox="0 0 20 20" style="enable-background:new 0 0 20 20;" xml:space="preserve">
<path style="fill-rule:evenodd;clip-rule:evenodd;fill:#19B4FF;" d="M14.386,18.792v-2.454h-0.033
	c-0.164-1.23-1.129-2.266-2.474-2.762c0.974-0.58,1.633-1.613,1.633-2.811c0-0.864-0.346-1.644-0.899-2.235
	c0.646-0.407,1.445-0.658,2.329-0.658c1.983,0,3.595,1.219,3.8,2.779h0.045c0,0,0.977,1.988,0.977,4c0,2.059,0,4.142,0,4.142H14.386
	z M14.954,7.445c-1.764,0-3.191-1.396-3.191-3.119c0-1.722,1.428-3.118,3.191-3.118c1.762,0,3.19,1.396,3.19,3.118
	C18.145,6.049,16.716,7.445,14.954,7.445z M12.637,10.777c0,1.369-1.127,2.479-2.517,2.479c-1.391,0-2.518-1.11-2.518-2.479
	s1.127-2.478,2.518-2.478C11.51,8.299,12.637,9.408,12.637,10.777z M5.062,7.445c-1.77,0-3.203-1.396-3.203-3.119
	c0-1.722,1.434-3.118,3.203-3.118c1.769,0,3.203,1.396,3.203,3.118C8.265,6.049,6.83,7.445,5.062,7.445z M5.05,7.872
	c0.956,0,1.822,0.29,2.489,0.762C7.04,9.212,6.728,9.949,6.728,10.765c0,1.188,0.644,2.218,1.603,2.803
	c-1.353,0.494-2.325,1.533-2.49,2.77H5.806v2.454H0.236c0,0,0-1.946,0-3.937c0-2.079,0.977-4.205,0.977-4.205h0.048
	C1.466,9.091,3.073,7.872,5.05,7.872z M10.002,14.086c1.796,0,3.251,1.038,3.271,2.323h0.002v2.372H6.728v-2.372h0.004
	C6.749,15.124,8.205,14.086,10.002,14.086z"/>
</svg>
