<?xml version="1.0" encoding="iso-8859-1"?>
<!-- Generator: Adobe Illustrator 16.0.3, SVG Export Plug-In . SVG Version: 6.00 Build 0)  -->
<!DOCTYPE svg PUBLIC "-//W3C//DTD SVG 1.1//EN" "http://www.w3.org/Graphics/SVG/1.1/DTD/svg11.dtd">
<svg version="1.1" id="&#x56FE;&#x5C42;_1" xmlns="http://www.w3.org/2000/svg" xmlns:xlink="http://www.w3.org/1999/xlink" x="0px"
	 y="0px" width="20px" height="20px" viewBox="0 0 20 20" style="enable-background:new 0 0 20 20;" xml:space="preserve">
<path style="fill:#21A7FF;" d="M19.108,17.448h-1.047V5.566c-0.004-0.344-0.205-0.655-0.518-0.802l-5.206-2.719
	c-0.289-0.133-0.622-0.133-0.911,0c-0.326,0.136-0.53,0.448-0.517,2.161v14.601H9.863V2.752c0-1.768,0-2.025-0.394-2.162
	c-0.335-0.14-0.712-0.14-1.047,0L2.453,3.731C2.132,3.881,1.93,4.207,1.937,4.56v12.903H0.89c-0.258,0-0.394,0.136-0.394,0.271v1.51
	c0,0.136,0.136,0.271,0.394,0.271h18.219c0.123,0,0.367-0.136,0.395-0.271v-1.495C19.53,17.584,19.244,17.448,19.108,17.448z
	 M6.872,15.531c0,0.15-0.122,0.272-0.271,0.272H5.132c-0.15,0-0.272-0.122-0.272-0.272v-1.277c0-0.15,0.122-0.271,0.272-0.271h1.496
	c0.15,0,0.272,0.121,0.272,0.271L6.872,15.531z M6.872,11.698c0,0.15-0.122,0.271-0.271,0.271H5.132
	c-0.15,0-0.272-0.121-0.272-0.271v-1.292c0-0.149,0.122-0.271,0.272-0.271h1.496c0.15,0,0.272,0.122,0.272,0.271L6.872,11.698z
	 M6.872,7.864c0,0.15-0.122,0.272-0.271,0.272H5.132c-0.15,0-0.272-0.122-0.272-0.272V6.559c0-0.15,0.122-0.272,0.272-0.272h1.496
	c0.15,0,0.272,0.122,0.272,0.272L6.872,7.864z M15.451,15.519c0,0.15-0.122,0.271-0.272,0.271h-1.495
	c-0.15,0-0.272-0.12-0.272-0.271V14.24c0-0.15,0.122-0.271,0.272-0.271h1.495c0.15,0,0.272,0.121,0.272,0.271V15.519z
	 M15.451,11.685c0,0.149-0.122,0.271-0.272,0.271h-1.495c-0.15,0-0.272-0.122-0.272-0.271v-1.279c0-0.149,0.122-0.271,0.272-0.271
	h1.495c0.15,0,0.272,0.122,0.272,0.271V11.685z M15.451,7.85c0,0.15-0.122,0.271-0.272,0.271h-1.495
	c-0.15,0-0.272-0.121-0.272-0.271V6.559c0-0.15,0.122-0.272,0.272-0.272h1.495c0.15,0,0.272,0.122,0.272,0.272V7.85z"/>
</svg>
