<?xml version="1.0" encoding="iso-8859-1"?>
<!-- Generator: Adobe Illustrator 16.0.3, SVG Export Plug-In . SVG Version: 6.00 Build 0)  -->
<!DOCTYPE svg PUBLIC "-//W3C//DTD SVG 1.1//EN" "http://www.w3.org/Graphics/SVG/1.1/DTD/svg11.dtd">
<svg version="1.1" id="&#x56FE;&#x5C42;_1" xmlns="http://www.w3.org/2000/svg" xmlns:xlink="http://www.w3.org/1999/xlink" x="0px"
	 y="0px" width="20px" height="20px" viewBox="0 0 20 20" style="enable-background:new 0 0 20 20;" xml:space="preserve">
<path style="fill-rule:evenodd;clip-rule:evenodd;fill:#21A7FF;" d="M19.392,11.92h-2.166v7.754c0,0.449-0.352,0.281-0.783,0.281
	h-3.854c-0.432,0-0.783,0.168-0.783-0.281V11.92H9.64c-0.335,0-0.607-0.277-0.607-0.617c0-0.141,0.048-0.279,0.134-0.388
	c0.019-0.026,0.04-0.051,0.063-0.072l4.647-4.181c0.152-0.147,0.352-0.229,0.563-0.229c0.21,0,0.409,0.081,0.546,0.214l4.812,4.19
	c0.029,0.025,0.054,0.056,0.075,0.087C19.954,11.031,20,11.164,20,11.301C19.998,11.643,19.726,11.92,19.392,11.92z M16.082,11.977
	h-1.175v-0.033l1.158-1.208c0.153-0.159,0.153-0.418,0-0.576c-0.153-0.16-0.401-0.16-0.553,0l-0.996,1.037l-0.998-1.038
	c-0.153-0.16-0.401-0.16-0.554,0c-0.153,0.159-0.153,0.418,0,0.576l1.158,1.208v0.035h-1.174c-0.218,0-0.393,0.182-0.393,0.408
	c0,0.225,0.175,0.408,0.393,0.408h1.174v0.611h-1.174c-0.218,0-0.393,0.182-0.393,0.408s0.175,0.408,0.393,0.408h1.174v0.816
	c0,0.225,0.175,0.408,0.392,0.408s0.391-0.184,0.391-0.408v-0.816h1.176c0.217,0,0.392-0.182,0.392-0.408s-0.175-0.408-0.392-0.408
	h-1.174v-0.611h1.175l0,0c0.217,0,0.391-0.182,0.391-0.408C16.473,12.16,16.299,11.977,16.082,11.977z M7.046,9.397
	c-0.188,0-0.376,0.202-0.376,0.404v2.613c0,0.203,0.188,0.404,0.376,0.404h0.576c0.031,0.02,0.067,0.035,0.119,0.035h2.581
	l0.045,6.654c0,0.318,0.117,0.439,0.306,0.48H1.184C0.499,19.988,0,19.455,0,18.717V1.284c0-0.738,0.561-1.272,1.184-1.272h9.979
	c0.623,0,1.187,0.534,1.184,1.272v4.903L9.08,9.397H7.046z M6.67,17.107c0,0.201,0.188,0.404,0.376,0.404h2.37
	c0.187,0,0.374-0.203,0.374-0.404v-2.613c0-0.201-0.188-0.404-0.374-0.404h-2.37c-0.188,0-0.376,0.203-0.376,0.404V17.107z
	 M2.367,17.107c0,0.201,0.188,0.404,0.376,0.404h2.37c0.188,0,0.375-0.203,0.375-0.404v-2.613c0-0.201-0.188-0.404-0.375-0.404
	h-2.37c-0.188,0-0.376,0.203-0.376,0.404V17.107z M2.367,9.801v2.613c0,0.203,0.188,0.404,0.376,0.404h2.37
	c0.188,0,0.375-0.201,0.375-0.404V9.801c0-0.202-0.188-0.404-0.375-0.404h-2.37C2.556,9.397,2.367,9.599,2.367,9.801z M7.92,4.034
	H6.735V2.761c0-0.336-0.312-0.603-0.623-0.603c-0.375,0-0.624,0.267-0.624,0.603v1.207H4.305c-0.313,0-0.561,0.335-0.561,0.671
	c0,0.403,0.248,0.67,0.561,0.67h1.184v1.272c0,0.336,0.313,0.603,0.624,0.603s0.623-0.27,0.623-0.536V5.375H7.92
	c0.312,0,0.561-0.335,0.561-0.67C8.48,4.301,8.231,4.034,7.92,4.034z"/>
</svg>
