<?xml version="1.0" encoding="iso-8859-1"?>
<!-- Generator: Adobe Illustrator 16.0.3, SVG Export Plug-In . SVG Version: 6.00 Build 0)  -->
<!DOCTYPE svg PUBLIC "-//W3C//DTD SVG 1.1//EN" "http://www.w3.org/Graphics/SVG/1.1/DTD/svg11.dtd">
<svg version="1.1" id="&#x56FE;&#x5C42;_1" xmlns="http://www.w3.org/2000/svg" xmlns:xlink="http://www.w3.org/1999/xlink" x="0px"
	 y="0px" width="20px" height="20px" viewBox="0 0 20 20" style="enable-background:new 0 0 20 20;" xml:space="preserve">
<g>
	<g>
		<path style="fill:#0096FF;" d="M19.318,0.675C19.207,0.563,19.057,0.5,18.898,0.5h-4.03c-0.096,0.002-0.182,0.06-0.219,0.146
			c-0.037,0.089-0.018,0.189,0.05,0.258l1.538,1.54l-4.264,4.264L8.66,3.393C8.438,3.168,8.137,3.044,7.821,3.044
			c-0.316,0-0.617,0.126-0.84,0.349l-6.16,6.164c-0.462,0.464-0.462,1.215,0,1.679c0.224,0.226,0.524,0.35,0.84,0.35
			s0.616-0.127,0.839-0.35l5.319-5.323l3.314,3.316c0.223,0.223,0.525,0.347,0.84,0.347c0.315,0,0.616-0.124,0.839-0.347
			l5.104-5.106l1.17,1.171c0.068,0.068,0.171,0.089,0.26,0.052c0.09-0.035,0.146-0.123,0.146-0.219V1.094
			C19.492,0.936,19.43,0.786,19.318,0.675z M4.629,12.375h-1.98c-0.328,0-0.594,0.266-0.594,0.594V19.5h3.168v-6.531
			C5.223,12.641,4.957,12.375,4.629,12.375z M9.373,8.417H7.397c-0.329,0-0.594,0.266-0.594,0.594V19.5h3.164V9.011
			C9.968,8.683,9.702,8.417,9.373,8.417z M18.866,6.833h-1.976c-0.328,0-0.594,0.267-0.594,0.594V19.5h3.164V7.427
			C19.461,7.098,19.195,6.833,18.866,6.833z M14.121,10.793h-1.977c-0.329,0-0.595,0.265-0.595,0.594V19.5h3.164v-8.113
			C14.714,11.058,14.449,10.793,14.121,10.793z"/>
	</g>
</g>
</svg>
