<?xml version="1.0" encoding="utf-8"?>
<!-- Generator: Adobe Illustrator 16.0.3, SVG Export Plug-In . SVG Version: 6.00 Build 0)  -->
<!DOCTYPE svg PUBLIC "-//W3C//DTD SVG 1.1//EN" "http://www.w3.org/Graphics/SVG/1.1/DTD/svg11.dtd">
<svg version="1.1" id="图层_1" xmlns="http://www.w3.org/2000/svg" xmlns:xlink="http://www.w3.org/1999/xlink" x="0px" y="0px"
	 width="20px" height="20px" viewBox="0 0 20 20" enable-background="new 0 0 20 20" xml:space="preserve">
<path fill="#19B4FF" d="M17.859,0.511H2.141C1.19,0.511,0.5,1.302,0.5,2.18v10.894c0,0.967,0.777,1.67,1.641,1.67h7.428v2.107H7.409
	c-0.691,0-1.296,0.615-1.296,1.318c0,0.705,0.604,1.318,1.296,1.318h6.045c0.692,0,1.296-0.615,1.296-1.318
	s-0.604-1.318-1.296-1.318h-2.158v-2.107h6.563c0.95,0,1.641-0.791,1.641-1.67V2.18C19.5,1.215,18.723,0.511,17.859,0.511z
	 M17.341,8.77h-4.75l-1.124,3.427L8.015,6.924L7.41,8.77H2.66V7.453h3.886l1.123-3.427l3.455,5.272l0.604-1.845h5.614V8.77H17.341z"
	/>
</svg>
