<?xml version="1.0" encoding="iso-8859-1"?>
<!-- Generator: Adobe Illustrator 16.0.3, SVG Export Plug-In . SVG Version: 6.00 Build 0)  -->
<!DOCTYPE svg PUBLIC "-//W3C//DTD SVG 1.1//EN" "http://www.w3.org/Graphics/SVG/1.1/DTD/svg11.dtd">
<svg version="1.1" id="&#x56FE;&#x5C42;_1" xmlns="http://www.w3.org/2000/svg" xmlns:xlink="http://www.w3.org/1999/xlink" x="0px"
	 y="0px" width="44px" height="44px" viewBox="0 0 44 44" style="enable-background:new 0 0 44 44;" xml:space="preserve">
<path style="fill-rule:evenodd;clip-rule:evenodd;fill:#0096FF;" d="M0.5,40.5v-2.058h2.05V14.813h10.251V2.5h16.371v12.313h11.276
	v23.629H42.5V40.5H0.5z M9.726,17.899H6.651v3.086h3.075V17.899z M9.726,23.043H6.651v3.086h3.075V23.043z M9.726,28.187H6.651
	v3.055h3.075V28.187z M14.852,38.442h6.151v-7.201h-6.151V38.442z M24.154,8.268c-0.83-1.171-1.945-3.007-3.188-4.27
	c-1.243,1.263-2.36,3.099-3.188,4.27c-0.888,1.254-1.334,2.454-1.334,3.61c0,1.125,0.113,2.258,1.017,3.071
	c0.904,0.815,2.228,1.248,3.506,1.248c1.276,0,2.654-0.433,3.56-1.248c0.903-0.813,0.961-1.946,0.961-3.071
	C25.486,10.722,25.041,9.521,24.154,8.268z M27.123,18.928H14.852v2.058h12.271V18.928z M27.123,23.043H14.852v2.058h12.271V23.043z
	 M27.123,27.158H14.852v2.057h12.271V27.158z M28.148,31.241h-6.12v7.201h6.12V31.241z M36.35,17.899h-3.076v3.086h3.076V17.899z
	 M36.35,23.043h-3.076v3.086h3.076V23.043z M36.35,28.187h-3.076v3.055h3.076V28.187z"/>
</svg>
