<?xml version="1.0" encoding="iso-8859-1"?>
<!-- Generator: Adobe Illustrator 16.0.3, SVG Export Plug-In . SVG Version: 6.00 Build 0)  -->
<!DOCTYPE svg PUBLIC "-//W3C//DTD SVG 1.1//EN" "http://www.w3.org/Graphics/SVG/1.1/DTD/svg11.dtd">
<svg version="1.1" id="&#x56FE;&#x5C42;_1" xmlns="http://www.w3.org/2000/svg" xmlns:xlink="http://www.w3.org/1999/xlink" x="0px"
	 y="0px" width="36px" height="36px" viewBox="0 0 36 36" style="enable-background:new 0 0 36 36;" xml:space="preserve">
<g>
	<g>
		<path style="fill:#FFFFFF;" d="M35.583,14.63c-0.066-0.094-0.152-0.186-0.247-0.264l-15.79-12.72
			c-0.447-0.403-1.103-0.647-1.792-0.647c-0.693,0-1.348,0.248-1.849,0.695L0.65,14.383c-0.078,0.064-0.148,0.14-0.208,0.221
			c-0.282,0.332-0.44,0.749-0.44,1.178c0,1.034,0.895,1.876,1.993,1.876h5.838v14.867c0,1.363,1.151,2.477,2.57,2.477h16.194
			c1.417,0,1.57-1.109,1.57-2.477V17.657h5.836c1.098,0,1.991-0.842,1.995-1.879C35.998,15.36,35.849,14.956,35.583,14.63z
			 M19.285,20.489v1.859h3.852c0.711,0,1.285,0.553,1.285,1.236c0,0.687-0.574,1.24-1.285,1.24h-3.855v2.477
			c0,0.685-0.574,1.236-1.285,1.236s-1.285-0.552-1.285-1.236v-2.477h-3.855c-0.71,0-1.285-0.554-1.285-1.24
			c0-0.684,0.574-1.236,1.285-1.236h3.855v-1.859h-3.855c-0.71,0-1.285-0.554-1.285-1.238c0-0.687,0.574-1.239,1.285-1.239h3.859
			v-0.105l-3.802-3.664c-0.503-0.481-0.503-1.265,0-1.75c0.5-0.485,1.313-0.485,1.816,0L18,15.644l3.271-3.148
			c0.5-0.484,1.313-0.484,1.817,0c0.504,0.482,0.504,1.266,0,1.751l-3.803,3.664v0.105h3.854c0.712,0,1.286,0.552,1.286,1.237
			c0,0.687-0.574,1.239-1.286,1.239v-0.003H19.285z"/>
	</g>
</g>
</svg>
