<?xml version="1.0" encoding="utf-8"?>
<!-- Generator: Adobe Illustrator 16.0.3, SVG Export Plug-In . SVG Version: 6.00 Build 0)  -->
<!DOCTYPE svg PUBLIC "-//W3C//DTD SVG 1.1//EN" "http://www.w3.org/Graphics/SVG/1.1/DTD/svg11.dtd">
<svg version="1.1" id="图层_1" xmlns="http://www.w3.org/2000/svg" xmlns:xlink="http://www.w3.org/1999/xlink" x="0px" y="0px"
	 width="18px" height="18px" viewBox="0 0 18 18" enable-background="new 0 0 18 18" xml:space="preserve">
<g>
	<g>
		<path fill="#FFFFFF" d="M7.27,11.715l0.033,0.004c0.302,0.014,0.556-0.225,0.569-0.531c0.013-0.283-0.188-0.529-0.462-0.572
			l-0.049-0.006c-0.028,0-0.058,0.005-0.086,0.009L7.238,10.62c-1.801-0.167-3.18-1.704-3.182-3.545
			C4.058,5.11,5.622,3.518,7.553,3.514c0.171,0,0.5,0.027,0.5,0.027c0.299-0.005,0.538-0.255,0.533-0.56
			c-0.005-0.304-0.25-0.547-0.549-0.543L7.992,2.441c-2.516-0.243-4.75,1.635-4.99,4.197c-0.014,0.145-0.02,0.29-0.021,0.436
			c0,1.686,0.889,3.167,2.211,3.984c-0.766,0.299-1.471,0.74-2.077,1.307c-1.135,1.052-1.872,2.475-2.082,4.021
			C1.012,16.441,1,16.504,1,16.566l0.005,0.063v0.006c0.014,0.313,0.271,0.556,0.577,0.544c0.288-0.013,0.519-0.246,0.534-0.535
			l-0.008-0.066V16.57c0-0.024-0.002-0.051-0.005-0.075C2.488,13.854,4.65,11.854,7.27,11.715z M18.993,16.986v-0.008
			c0-0.052-0.007-0.102-0.021-0.15c-0.203-1.563-0.943-3.004-2.089-4.064c-0.606-0.566-1.313-1.01-2.079-1.309
			c1.371-0.844,2.207-2.352,2.211-3.983c-0.004-2.569-2.049-4.652-4.572-4.655C9.918,2.821,7.873,4.903,7.87,7.473
			c0,1.687,0.886,3.167,2.21,3.984c-2.236,0.873-3.83,2.914-4.162,5.328c-0.02,0.061-0.031,0.119-0.031,0.182l0.006,0.063v0.009
			c0.014,0.313,0.271,0.558,0.577,0.543c0.288-0.013,0.518-0.244,0.533-0.538l-0.007-0.064v-0.008c0-0.025-0.002-0.053-0.006-0.076
			c0.385-2.642,2.547-4.641,5.167-4.778c0.095,0.006,0.188,0.012,0.283,0.012c0.097,0,0.189-0.006,0.283-0.012
			c2.625,0.139,4.791,2.146,5.17,4.795H17.9c-0.004,0.021-0.006,0.042-0.006,0.062l0.006,0.064v0.006
			c0.02,0.311,0.279,0.545,0.582,0.527c0.275-0.016,0.496-0.238,0.517-0.521L18.993,16.986z M12.124,11.02
			c-1.802-0.168-3.18-1.706-3.183-3.545c0-1.963,1.571-3.559,3.499-3.559c1.929,0,3.498,1.596,3.498,3.559
			c-0.002,1.84-1.381,3.375-3.18,3.545C12.548,11.009,12.335,11.009,12.124,11.02z"/>
	</g>
</g>
</svg>
