<?xml version="1.0" encoding="utf-8"?>
<!-- Generator: Adobe Illustrator 16.0.3, SVG Export Plug-In . SVG Version: 6.00 Build 0)  -->
<!DOCTYPE svg PUBLIC "-//W3C//DTD SVG 1.1//EN" "http://www.w3.org/Graphics/SVG/1.1/DTD/svg11.dtd">
<svg version="1.1" id="图层_1" xmlns="http://www.w3.org/2000/svg" xmlns:xlink="http://www.w3.org/1999/xlink" x="0px" y="0px"
	 width="18px" height="18px" viewBox="0 0 18 18" enable-background="new 0 0 18 18" xml:space="preserve">
<g>
	<g>
		<path fill="#FFFFFF" d="M6.2,11.283v0.59h2.124l0.011,0.01v0.816H6.2v0.592h2.135v1.445h1.144v-1.445h2.145v-0.592H9.478v-0.816
			l0.01-0.01h2.135v-0.59H9.834l1.926-3.34h-1.305l-1.547,2.92l-1.549-2.92H6.056l1.923,3.34H6.2L6.2,11.283z M1.649,3.246h14.802
			c0.252,0,0.457-0.193,0.457-0.434c0-0.242-0.205-0.436-0.457-0.436H1.649c-0.253,0-0.458,0.193-0.458,0.436
			C1.191,3.052,1.397,3.246,1.649,3.246z M3.378,1.505h11.243c0.252,0,0.457-0.193,0.457-0.434c0-0.241-0.205-0.437-0.457-0.437
			H3.378c-0.253,0-0.458,0.195-0.458,0.437C2.92,1.312,3.125,1.505,3.378,1.505z M17.473,4.392H0.528C0.236,4.392,0,4.618,0,4.894
			v11.969c0,0.275,0.236,0.502,0.528,0.502h16.945c0.291,0,0.526-0.227,0.526-0.502V4.894C18,4.617,17.764,4.392,17.473,4.392z
			 M16.943,16.359H1.058V5.396h15.885V16.359L16.943,16.359z"/>
	</g>
</g>
</svg>
