<?xml version="1.0" encoding="utf-8"?>
<!-- Generator: Adobe Illustrator 16.0.3, SVG Export Plug-In . SVG Version: 6.00 Build 0)  -->
<!DOCTYPE svg PUBLIC "-//W3C//DTD SVG 1.1//EN" "http://www.w3.org/Graphics/SVG/1.1/DTD/svg11.dtd">
<svg version="1.1" id="图层_1" xmlns="http://www.w3.org/2000/svg" xmlns:xlink="http://www.w3.org/1999/xlink" x="0px" y="0px"
	 width="18px" height="18px" viewBox="0 0 18 18" enable-background="new 0 0 18 18" xml:space="preserve">
<path fill="#FFFFFF" d="M15.146,9.813c0.225,0,0.4-0.168,0.4-0.375c0-0.207-0.178-0.375-0.4-0.375h-0.857l0.814-0.752
	c0.158-0.146,0.158-0.383,0-0.528c-0.16-0.146-0.416-0.146-0.576,0l-1.006,0.93l-1.006-0.93c-0.158-0.146-0.416-0.146-0.576,0
	c-0.158,0.146-0.158,0.385,0,0.528l0.813,0.752h-0.854c-0.229,0-0.406,0.168-0.406,0.375c0,0.207,0.182,0.375,0.406,0.375h1.217
	v0.75h-1.217c-0.229,0-0.406,0.168-0.406,0.375c0,0.205,0.182,0.375,0.406,0.375h1.217v0.998c0,0.207,0.182,0.375,0.406,0.375
	c0.224,0,0.402-0.168,0.402-0.375v-0.998h1.221c0.227,0,0.402-0.17,0.402-0.375c0-0.207-0.18-0.375-0.402-0.375h-1.221v-0.75H15.146
	z"/>
<path fill="#FFFFFF" d="M11.141,2.937H6.588c-0.264,0-0.476-0.207-0.476-0.463c0-0.256,0.212-0.461,0.476-0.461h4.553
	c0.264,0,0.477,0.205,0.477,0.461C11.613,2.729,11.402,2.937,11.141,2.937z M7.608,9.523h-4.28c-0.264,0-0.476-0.207-0.476-0.462
	c0-0.254,0.212-0.461,0.476-0.461h4.28c0.265,0,0.476,0.207,0.476,0.461C8.084,9.317,7.873,9.523,7.608,9.523z M7.608,12.293h-4.28
	c-0.264,0-0.476-0.207-0.476-0.462s0.212-0.462,0.476-0.462h4.28c0.265,0,0.476,0.207,0.476,0.462S7.873,12.293,7.608,12.293z"/>
<path fill="#FFFFFF" d="M17.049,2.017h-3.531v0.922h2.979c0.308,0,0.556,0.24,0.556,0.539v1.306h-16.1v-1.32
	c0-0.29,0.243-0.522,0.543-0.522h2.26c0.263,0,0.477-0.207,0.477-0.463S4.018,2.017,3.754,2.017H0.955C0.428,2.017,0,2.431,0,2.94
	v13.042c0,0.513,0.428,0.926,0.953,0.926h16.096c0.525,0,0.951-0.413,0.951-0.926V2.937C18,2.431,17.574,2.017,17.049,2.017z
	 M17.049,15.063c0,0.51-0.426,0.922-0.949,0.922H0.953V5.704h16.096V15.063z"/>
<path fill="#FFFFFF" d="M5.125,3.856c-0.26,0-0.47-0.203-0.47-0.451v-1.86c0-0.251,0.209-0.453,0.47-0.453
	c0.258,0,0.467,0.202,0.467,0.453v1.86C5.592,3.653,5.383,3.856,5.125,3.856z M12.572,3.856c-0.258,0-0.467-0.203-0.467-0.451v-1.86
	c0-0.251,0.209-0.453,0.467-0.453c0.26,0,0.471,0.202,0.471,0.453v1.86C13.041,3.653,12.832,3.856,12.572,3.856z"/>
</svg>
