<?xml version="1.0" encoding="utf-8"?>
<!-- Generator: Adobe Illustrator 16.0.3, SVG Export Plug-In . SVG Version: 6.00 Build 0)  -->
<!DOCTYPE svg PUBLIC "-//W3C//DTD SVG 1.1//EN" "http://www.w3.org/Graphics/SVG/1.1/DTD/svg11.dtd">
<svg version="1.1" id="图层_1" xmlns="http://www.w3.org/2000/svg" xmlns:xlink="http://www.w3.org/1999/xlink" x="0px" y="0px"
	 width="18px" height="18px" viewBox="0 0 18 18" enable-background="new 0 0 18 18" xml:space="preserve">
<path fill="#FFFFFF" d="M18.572,12.348h-4.608c-0.235,0-0.429-0.19-0.429-0.428v-0.167c0-0.235,0.191-0.428,0.429-0.428h4.608
	c0.236,0,0.428,0.192,0.428,0.428v0.167C19,12.156,18.809,12.348,18.572,12.348z M18.572,9.73h-4.608
	c-0.235,0-0.429-0.191-0.429-0.427v-0.2c0-0.236,0.191-0.427,0.429-0.427h4.608C18.809,8.676,19,8.867,19,9.103v0.201
	C19,9.539,18.809,9.73,18.572,9.73z M13.747,5.416c-0.038-0.039-0.081-0.075-0.125-0.117c-0.054,0.383-0.097,0.749-0.16,1.111
	c-0.026,0.151,0.003,0.249,0.127,0.35c0.229,0.189,0.366,0.438,0.397,0.73c0.027,0.263-0.034,0.487-0.139,0.687
	c-1.572,0.078-1.574,0.423-1.47,1.435c-0.144,0.271-0.285,0.537-0.431,0.813c0.005,0.004,0.009,0.012,0.016,0.02
	c0.155,0.142,0.329,0.26,0.492,0.394c-0.002,0.565-0.023,1.017,0.07,1.374l-1.215-0.916l-1.093,1.191
	c0.804,0.039,1.583,0.021,2.38-0.078c0.279,0.604,1.086,0.89,3.396,0.975c-1.279,2.491-3.927,4.229-7.085,4.233
	c-4.388,0-7.921-3.4-7.908-7.63c0.012-4.271,3.567-7.56,7.81-7.603c3.725-0.039,6.813,2.363,7.728,5.619
	c-0.392,0.023-0.78,0.053-1.157,0.082C15.068,7.088,14.527,6.197,13.747,5.416z M14.701,13.402c-0.225-0.104-0.43-0.201-0.688-0.147
	c-1.287,0.269-2.59,0.371-3.902,0.269c-0.199-0.016-0.346,0.028-0.502,0.145c-0.301,0.229-0.648,0.297-1.02,0.18
	c-0.121-0.037-0.216-0.019-0.32,0.047c-0.707,0.44-1.462,0.793-2.259,1.056c-0.36,0.118-0.729,0.217-1.093,0.323
	C7.803,17.561,12.725,16.747,14.701,13.402z M3.904,14.427c1.29-0.225,2.491-0.631,3.63-1.288c-1.254-0.311-2.418-0.76-3.536-1.356
	C3.815,12.666,3.802,13.533,3.904,14.427z M2.754,12.783c0.029-0.124,0.046-0.243,0.063-0.365c0.049-0.374,0.101-0.746,0.144-1.121
	c0.006-0.053-0.004-0.134-0.04-0.161c-0.254-0.192-0.516-0.372-0.799-0.573C2.19,11.361,2.405,12.09,2.754,12.783z M7.704,3.587
	C7.675,3.584,7.662,3.581,7.648,3.583c-0.026,0.002-0.055,0.008-0.08,0.014c-1.043,0.205-1.985,0.624-2.816,1.26
	C3.39,5.9,2.542,7.244,2.217,8.896C2.172,9.127,2.209,9.273,2.41,9.416c0.3,0.212,0.576,0.457,0.871,0.693
	c0.018-0.047,0.03-0.078,0.041-0.11c0.296-0.907,0.718-1.757,1.26-2.55c0.091-0.133,0.1-0.237,0.038-0.384
	C4.34,6.416,4.65,5.726,5.311,5.5c0.272-0.093,0.544-0.087,0.821-0.018C6.19,5.497,6.275,5.494,6.317,5.461
	c0.457-0.351,0.909-0.707,1.36-1.064c0.037-0.029,0.07-0.087,0.069-0.131C7.74,4.043,7.72,3.82,7.704,3.587z M7.095,6.174
	C6.987,6.262,6.968,6.35,6.974,6.481c0.007,0.19,0,0.39-0.054,0.57c-0.148,0.482-0.585,0.77-1.17,0.794
	c-0.113,0.006-0.178,0.04-0.241,0.134c-0.547,0.818-0.96,1.694-1.254,2.625c-0.028,0.094-0.017,0.139,0.075,0.188
	c1.045,0.579,2.156,1.008,3.319,1.313c0.121,0.03,0.185,0.006,0.26-0.09c0.31-0.398,0.729-0.629,1.236-0.475
	c0.334,0.102,0.498-0.003,0.685-0.229c0.227-0.271,0.484-0.521,0.736-0.787c-1.33-1.46-2.229-3.123-2.67-5.034
	C7.614,5.732,7.36,5.96,7.095,6.174z M9.278,3.427c-0.151,0-0.304-0.003-0.456,0.001C8.748,3.431,8.709,3.473,8.726,3.551
	c0.01,0.042,0.019,0.084,0.031,0.147l0.526-0.231L9.278,3.427z M12.445,4.393c-0.327-0.146-0.653-0.294-0.975-0.447
	c-0.15-0.07-0.291-0.077-0.451-0.032c-0.674,0.193-1.316,0.465-1.934,0.792c-0.22,0.117-0.22,0.118-0.173,0.358
	c0.266,1.37,0.815,2.628,1.635,3.775c0.193,0.27,0.406,0.526,0.621,0.806c0.2-0.4,0.384-0.776,0.574-1.149
	c0.039-0.076,0.036-0.13-0.011-0.201c-0.422-0.637-0.188-1.411,0.522-1.728c0.099-0.043,0.149-0.099,0.156-0.205
	c0.047-0.591,0.097-1.182,0.149-1.773C12.572,4.488,12.535,4.434,12.445,4.393z"/>
</svg>
