<?xml version="1.0" encoding="utf-8"?>
<!-- Generator: Adobe Illustrator 16.0.3, SVG Export Plug-In . SVG Version: 6.00 Build 0)  -->
<!DOCTYPE svg PUBLIC "-//W3C//DTD SVG 1.1//EN" "http://www.w3.org/Graphics/SVG/1.1/DTD/svg11.dtd">
<svg version="1.1" id="图层_1" xmlns="http://www.w3.org/2000/svg" xmlns:xlink="http://www.w3.org/1999/xlink" x="0px" y="0px"
	 width="18px" height="18px" viewBox="0 0 18 18" enable-background="new 0 0 18 18" xml:space="preserve">
<path fill="#FFFFFF" d="M13.359,16.84c-0.34,0.178-0.758,0.047-0.937-0.289c-0.174-0.326-0.057-0.729,0.265-0.916
	c2.426-1.334,3.929-3.875,3.928-6.636c0-4.188-3.41-7.581-7.615-7.581S1.384,4.811,1.384,8.999c-0.001,2.761,1.504,5.302,3.93,6.636
	c0.333,0.188,0.45,0.606,0.264,0.938c-0.185,0.329-0.604,0.448-0.935,0.267C1.777,15.264-0.001,12.26,0,8.998
	c0-4.947,4.029-8.961,9-8.961c4.971,0,9,4.014,9,8.961C18,12.292,16.199,15.27,13.359,16.84z M9,12.447
	c-1.912,0-3.462-1.545-3.462-3.447c0-1.902,1.549-3.447,3.462-3.447c1.912,0,3.461,1.545,3.461,3.447
	C12.461,10.902,10.912,12.447,9,12.447z M9,11.068c1.146,0.002,2.078-0.922,2.082-2.063c0.004-1.143-0.925-2.072-2.07-2.074
	c-0.006,0-0.01,0-0.014,0c-1.146,0-2.076,0.927-2.076,2.067C6.922,10.141,7.854,11.068,9,11.068L9,11.068z M9,13.137l3.461,4.826
	H5.537L9,13.137z M8.135,16.583h1.728L9,15.332L8.135,16.583L8.135,16.583z"/>
</svg>
