<?xml version="1.0" encoding="iso-8859-1"?>
<!-- Generator: Adobe Illustrator 16.0.3, SVG Export Plug-In . SVG Version: 6.00 Build 0)  -->
<!DOCTYPE svg PUBLIC "-//W3C//DTD SVG 1.1//EN" "http://www.w3.org/Graphics/SVG/1.1/DTD/svg11.dtd">
<svg version="1.1" id="&#x56FE;&#x5C42;_1" xmlns="http://www.w3.org/2000/svg" xmlns:xlink="http://www.w3.org/1999/xlink" x="0px"
	 y="0px" width="60px" height="60px" viewBox="0 0 60 60" style="enable-background:new 0 0 60 60;" xml:space="preserve">
<path style="fill-rule:evenodd;clip-rule:evenodd;fill:#18B7FF;" d="M41.141,31.211c0,0,1.25,2.466,1.25,4.96
	c0,2.554,0,5.137,0,5.137h-6.88V38.25h-0.046c-0.22-1.525-1.461-2.805-3.184-3.416c1.264-0.715,2.12-1.998,2.12-3.489
	c0-1.071-0.445-2.037-1.157-2.769c0.823-0.5,1.845-0.81,2.973-0.81c2.539,0,4.604,1.512,4.862,3.445H41.141z M36.229,19.5
	c2.248,0,4.07,1.732,4.07,3.868c0,2.137-1.822,3.869-4.07,3.869s-4.07-1.732-4.07-3.869C32.158,21.232,33.98,19.5,36.229,19.5z
	 M30.029,28.27c1.788,0,3.238,1.382,3.238,3.087s-1.45,3.087-3.238,3.087c-1.789,0-3.239-1.382-3.239-3.087
	S28.241,28.27,30.029,28.27z M23.565,19.5c2.255,0,4.083,1.732,4.083,3.868c0,2.137-1.828,3.869-4.083,3.869
	s-4.083-1.732-4.083-3.869C19.482,21.232,21.31,19.5,23.565,19.5z M29.891,35.453c2.313,0,4.186,1.295,4.205,2.897H34.1v2.948
	h-8.418v-2.948h0.004C25.706,36.748,27.579,35.453,29.891,35.453z M17.391,41.308c0,0,0-2.415,0-4.882
	c0-2.578,1.25-5.215,1.25-5.215h0.061c0.257-1.933,2.312-3.445,4.838-3.445c1.223,0,2.331,0.36,3.182,0.945
	c-0.64,0.715-1.04,1.626-1.04,2.634c0,1.479,0.839,2.763,2.085,3.483c-1.731,0.608-2.979,1.893-3.199,3.422h-0.046v3.058H17.391z
	 M53.748,26.5C52.049,14.909,42.094,6,30.031,6c-13.255,0-24,10.745-24,24s10.745,24,24,24c12.063,0,22.018-8.908,23.717-20.5h1.484
	c-1.709,12.423-12.328,22-25.208,22C15.955,55.5,4.549,44.083,4.549,30S15.955,4.5,30.024,4.5c12.88,0,23.499,9.577,25.208,22
	H53.748z"/>
</svg>
