<?xml version="1.0" encoding="iso-8859-1"?>
<!-- Generator: Adobe Illustrator 16.0.3, SVG Export Plug-In . SVG Version: 6.00 Build 0)  -->
<!DOCTYPE svg PUBLIC "-//W3C//DTD SVG 1.1//EN" "http://www.w3.org/Graphics/SVG/1.1/DTD/svg11.dtd">
<svg version="1.1" id="&#x56FE;&#x5C42;_1" xmlns="http://www.w3.org/2000/svg" xmlns:xlink="http://www.w3.org/1999/xlink" x="0px"
	 y="0px" width="60px" height="60px" viewBox="0 0 60 60" style="enable-background:new 0 0 60 60;" xml:space="preserve">
<path style="fill-rule:evenodd;clip-rule:evenodd;fill:#02E8E9;" d="M38.504,34.15c0.822,0.483,1.656,0.941,2.455,1.467
	c0.352,0.231,0.654,0.578,0.94,0.916c0.409,0.48,0.628,1.052,0.601,1.746c-0.032,0.766-0.006,3.43-0.006,4.217H19.506
	c0-0.95-0.04-3.77,0.02-4.688c0.024-0.364,0.227-0.746,0.423-1.061c0.476-0.754,1.151-1.263,1.875-1.678
	c0.993-0.565,1.992-1.117,2.995-1.657c1.23-0.661,2.526-1.099,3.878-1.315c0.053-0.006,0.105-0.022,0.153-0.035
	c0.006-0.035,0.016-0.063,0.01-0.07c-0.818-0.844-1.156-1.986-1.551-3.092c-0.186-0.52-0.365-1.042-0.538-1.568
	c-0.054-0.163-0.104-0.264-0.292-0.238c-0.236,0.035-0.418-0.104-0.516-0.34c-0.33-0.798-0.463-1.639-0.408-2.513
	c0.022-0.313,0.13,0.592,0.423,0.551c0-0.809,0.015-1.594-0.004-2.38c-0.026-1.175,0.304-2.248,0.739-3.288
	c0.222-0.529,0.561-0.913,1.142-0.956c0.139-0.01,0.285-0.193,0.392-0.332c0.073-0.093,0.088-0.248,0.123-0.378
	c0.127-0.482,0.412-0.767,0.854-0.875c0.672-0.166,1.33-0.027,1.988,0.108c0.439,0.089,0.877,0.179,1.313,0.279
	c0.986,0.226,1.847,0.723,2.498,1.583c0.23,0.306,0.388,0.706,0.503,1.091c0.43,1.415,0.532,2.876,0.392,4.36
	c-0.01,0.092-0.01,0.187-0.01,0.279c-0.002,0.155-0.002,0.312-0.002,0.489c0.357,0.074,0.449-0.803,0.465-0.453
	c0.036,0.821-0.088,1.612-0.373,2.369c-0.097,0.26-0.275,0.437-0.537,0.408c-0.186-0.02-0.236,0.074-0.292,0.237
	c-0.344,0.974-0.683,1.951-1.047,2.915c-0.25,0.66-0.577,1.275-1.117,1.786c0.396,0.079,0.745,0.147,1.096,0.224
	C35.67,32.596,37.105,33.322,38.504,34.15z M53.748,26.5C52.049,14.909,42.094,6,30.031,6c-13.255,0-24,10.745-24,24
	s10.745,24,24,24c12.063,0,22.018-8.908,23.717-20.5h1.484c-1.709,12.423-12.328,22-25.208,22C15.955,55.5,4.549,44.083,4.549,30
	S15.955,4.5,30.024,4.5c12.88,0,23.499,9.577,25.208,22H53.748z"/>
</svg>
